<svg width="90" height="90" fill="none" xmlns="http://www.w3.org/2000/svg"><g clip-path="url(#a)"><path d="M76.344 90c8.602 0 7.277-3.81 7.277-7.63 0-4.86-2.784-9.04-6.797-10.91l-20.467-9.65s-.077-.03-.125-.04c-.69 5.82-5.568 12.58-11.328 12.58S34.47 67.58 33.76 61.77c-.048 0-.087.02-.125.04l-20.467 9.65C9.164 73.32 6.37 77.51 6.37 82.37c0 3.81-1.325 7.63 7.277 7.63h62.698z" fill="#AED0F0"/><path d="m45.153 82.62-3.551-7.83c-3.217 0-8.804-1.87-8.804-5.22l-.48-15.38h25.306v11.75c0 3.35-12.48 16.68-12.48 16.68h.01z" fill="#D5A47D"/><path d="m41.39 73.38 3.754 9.24-10.886-10.34 5.011-1.82 1.114 1.28c.422.48.748 1.03.998 1.63l.01.01z" fill="#D0E6FB"/><path d="m32.021 58.12-5.213 6.73s1.325 5.64 5.242 13.65c0 0 2.122-3.63 5.127-4.85 3.234-1.31 3.849-1.18 3.849-1.18s-4.8-6.27-9.014-14.34l.01-.01z" fill="#E6F7FF"/><path d="m48.907 73.38-3.753 9.24L56.04 72.28l-5.011-1.82-1.114 1.28a5.838 5.838 0 0 0-.998 1.63l-.01.01z" fill="#D0E6FB"/><path d="M58.297 58.13c-4.215 8.08-9.015 14.34-9.015 14.34s.614-.13 3.85 1.18c3.005 1.21 5.126 4.85 5.126 4.85 3.917-8.02 5.242-13.65 5.242-13.65l-5.213-6.73.01.01z" fill="#E6F7FF"/><path d="M63.038 17.92c-.019.54-.086 1.13-.192 1.76-.038.2-.077.42-.106.66-.547 3.92-.95 12.61-.614 14.73.087.58-2.18 1.01-5.606 1.33-3.428.32-8.727-18.62-13.267-18.48-4.83.14-8.88 19.36-12.144 19.38-2.583.02-4.224.02-4.224.02-.24-5.13-2.381-7.89-2.967-9.39-.125-.31-.134-.66-.048-1.04.039-.28.135-.58.23-.88.461-1.34 1.277-2.87.893-4.09-.518-1.6-2.41-3.29-1.248-6.4a9.15 9.15 0 0 1 .903-1.74c2.429-3.78 6.643-4.4 9.475-7.57.365-.4.682-.83.989-1.32.422-.67 2.342-3.18 5.328-4.31.816-.31 4.934 1.09 4.81 1.3.163-.16 2.13-2.03 4.56-1.88 1.219.08 1.64 2.08 2.025 3.02v.03c.432 1.09 1.142 2.09 2.688 2.46 1.075.25 1.987.52 2.726.83.375.16.701.32.99.5 1.18.71 1.746 1.68 1.746 3.17 0 2.63 3.159 5.51 3.043 7.87v.03l.01.01z" fill="#6A4632"/><path d="M59.218 43.87s1.689 1.73 2.65.14c.076-.12.153-.27.24-.42.978-1.89 2.543-6.15 2.178-7.97a2.176 2.176 0 0 0-.364-.85c-.816-1.16-2.756-1.21-4.906-.8l.22 9.9h-.018zM30.245 45.98s-1.555 1.88-2.62.38c-.087-.11-.174-.25-.27-.4-1.133-1.79-3.043-5.89-2.822-7.74.038-.34.144-.63.288-.88.72-1.23 2.65-1.45 4.829-1.25l.595 9.89z" fill="#D5A47D"/><path d="M28.93 23.95c-.087 5.89.24 22.03 1.19 27.41.95 5.38 9.273 12.64 18.211 10.39 8.928-2.25 12.374-9.14 11.904-17.15-.48-8.01-1.555-25.03-3.216-28.3-1.66-3.25-10.589-3.88-15.58-3.25-4.993.63-12.375 2.75-12.49 10.89l-.02.01z" fill="#E3C29C"/><path d="M48.36 37.34c-1.287-1.6.893-4.37 2.716-4.74 3.207-.64 3.88 1.76 4.013 2.94.163 1.37-4.589 4.48-6.739 1.79l.01.01z" fill="#fff"/><path d="M53.63 35.63c0 1.46-1.123 2.65-2.524 2.65-1.402 0-2.525-1.18-2.525-2.65s1.123-2.65 2.525-2.65c1.401 0 2.524 1.18 2.524 2.65z" fill="#383532"/><path d="M53.812 34.57c0 .38-.297.68-.643.68-.345 0-.643-.31-.643-.68 0-.37.297-.68.643-.68.346 0 .643.31.643.68zM41.16 37.2c.086-2.72-2.477-4.17-4.387-4.12-3.178.08-3.533 3.11-3.408 4.28.124 1.22 2.236 2.45 4.3 2.2 2.602-.32 3.456-1.22 3.495-2.36z" fill="#fff"/><path d="M40.334 36.7c0 1.46-1.123 2.64-2.525 2.64-1.401 0-2.524-1.18-2.524-2.64 0-1.46 1.123-2.65 2.524-2.65 1.402 0 2.525 1.18 2.525 2.65z" fill="#383532"/><path d="M40.498 35.42c0 .38-.297.68-.643.68-.346 0-.643-.31-.643-.68 0-.37.297-.68.643-.68.346 0 .643.31.643.68z" fill="#fff"/><path d="M41.045 43.29s2.41 2.63 3.926 2.63c1.517 0 3.571-3 3.571-3s-2.323 1.31-3.667 1.59c-1.344.28-3.83-1.22-3.83-1.22z" fill="#D5A47D"/><path d="M51.451 44.2c.317-.03.576.02.787.12-.633.87-3.61 4.69-7.632 5.35 5.002.25 7.67-3.95 8.199-4.88.153.22.24.48.288.72.48-1.31-.528-2.03-1.632-1.31h-.01z" fill="#383532"/><path d="M45.989 26.24s.144 2.58 1.229 2.49c1.084-.09 7.382-2.06 8.899.94-.384-2.63-3.408-4.97-4.455-5.02-1.037-.05-3.878 1.13-3.878 1.13l-.384 2.25-.663-1.88-.758.09H46h-.01zM41.794 22.63s.268 2.44-.135 3.05c-.403.61-6.422-.28-9.37 4.27-.21-.38.193-2.73.538-3.56.759-1.86 2.592-3 7.047-3.47.297.97.499 2.2.499 2.2l.662-2.3.759-.19z" fill="#6A4632"/></g><defs><clipPath id="a"><path fill="#fff" d="M0 0h90v90H0z"/></clipPath></defs></svg>